<mxfile host="app.diagrams.net" agent="Mozilla/5.0 (Windows NT 10.0; Win64; x64) AppleWebKit/537.36 (KHTML, like Gecko) Chrome/131.0.0.0 Safari/537.36" version="25.0.3">
  <diagram name="Страница — 1" id="lKU3onr72MMcPhsUFRtR">
    <mxGraphModel dx="1195" dy="682" grid="1" gridSize="10" guides="1" tooltips="1" connect="1" arrows="1" fold="1" page="1" pageScale="1" pageWidth="827" pageHeight="1169" math="0" shadow="0">
      <root>
        <mxCell id="0" />
        <mxCell id="1" parent="0" />
        <mxCell id="9DJTG4eF34QYmgAZXBlj-6" style="edgeStyle=orthogonalEdgeStyle;rounded=0;orthogonalLoop=1;jettySize=auto;html=1;entryX=0;entryY=0.5;entryDx=0;entryDy=0;curved=1;" edge="1" parent="1" source="9DJTG4eF34QYmgAZXBlj-1" target="9DJTG4eF34QYmgAZXBlj-5">
          <mxGeometry relative="1" as="geometry" />
        </mxCell>
        <mxCell id="9DJTG4eF34QYmgAZXBlj-9" style="edgeStyle=orthogonalEdgeStyle;rounded=0;orthogonalLoop=1;jettySize=auto;html=1;entryX=0;entryY=0.5;entryDx=0;entryDy=0;curved=1;" edge="1" parent="1" source="9DJTG4eF34QYmgAZXBlj-1" target="9DJTG4eF34QYmgAZXBlj-7">
          <mxGeometry relative="1" as="geometry" />
        </mxCell>
        <mxCell id="9DJTG4eF34QYmgAZXBlj-1" value="Пользователь" style="shape=umlActor;verticalLabelPosition=bottom;verticalAlign=top;html=1;outlineConnect=0;" vertex="1" parent="1">
          <mxGeometry x="460" y="500" width="30" height="60" as="geometry" />
        </mxCell>
        <mxCell id="9DJTG4eF34QYmgAZXBlj-13" style="edgeStyle=orthogonalEdgeStyle;rounded=0;orthogonalLoop=1;jettySize=auto;html=1;entryX=1;entryY=0.5;entryDx=0;entryDy=0;" edge="1" parent="1" source="9DJTG4eF34QYmgAZXBlj-2" target="9DJTG4eF34QYmgAZXBlj-12">
          <mxGeometry relative="1" as="geometry" />
        </mxCell>
        <mxCell id="9DJTG4eF34QYmgAZXBlj-14" style="edgeStyle=orthogonalEdgeStyle;rounded=0;orthogonalLoop=1;jettySize=auto;html=1;" edge="1" parent="1" source="9DJTG4eF34QYmgAZXBlj-2" target="9DJTG4eF34QYmgAZXBlj-10">
          <mxGeometry relative="1" as="geometry" />
        </mxCell>
        <mxCell id="9DJTG4eF34QYmgAZXBlj-15" style="edgeStyle=orthogonalEdgeStyle;rounded=0;orthogonalLoop=1;jettySize=auto;html=1;" edge="1" parent="1" source="9DJTG4eF34QYmgAZXBlj-2" target="9DJTG4eF34QYmgAZXBlj-11">
          <mxGeometry relative="1" as="geometry" />
        </mxCell>
        <mxCell id="9DJTG4eF34QYmgAZXBlj-2" value="Микроконтроллер" style="shape=umlActor;verticalLabelPosition=bottom;verticalAlign=top;html=1;outlineConnect=0;" vertex="1" parent="1">
          <mxGeometry x="1290" y="500" width="30" height="60" as="geometry" />
        </mxCell>
        <mxCell id="9DJTG4eF34QYmgAZXBlj-16" style="edgeStyle=orthogonalEdgeStyle;rounded=0;orthogonalLoop=1;jettySize=auto;html=1;curved=1;dashed=1;" edge="1" parent="1" source="9DJTG4eF34QYmgAZXBlj-5" target="9DJTG4eF34QYmgAZXBlj-10">
          <mxGeometry relative="1" as="geometry">
            <Array as="points">
              <mxPoint x="940" y="460" />
              <mxPoint x="940" y="380" />
            </Array>
          </mxGeometry>
        </mxCell>
        <mxCell id="9DJTG4eF34QYmgAZXBlj-19" value="&amp;lt;&amp;lt;include&amp;gt;&amp;gt;" style="edgeLabel;html=1;align=center;verticalAlign=middle;resizable=0;points=[];" vertex="1" connectable="0" parent="9DJTG4eF34QYmgAZXBlj-16">
          <mxGeometry x="-0.0162" y="-15" relative="1" as="geometry">
            <mxPoint as="offset" />
          </mxGeometry>
        </mxCell>
        <mxCell id="9DJTG4eF34QYmgAZXBlj-17" style="edgeStyle=orthogonalEdgeStyle;rounded=0;orthogonalLoop=1;jettySize=auto;html=1;curved=1;dashed=1;" edge="1" parent="1" source="9DJTG4eF34QYmgAZXBlj-5" target="9DJTG4eF34QYmgAZXBlj-12">
          <mxGeometry relative="1" as="geometry" />
        </mxCell>
        <mxCell id="9DJTG4eF34QYmgAZXBlj-20" value="&amp;lt;&amp;lt;include&amp;gt;&amp;gt;" style="edgeLabel;html=1;align=center;verticalAlign=middle;resizable=0;points=[];" vertex="1" connectable="0" parent="9DJTG4eF34QYmgAZXBlj-17">
          <mxGeometry x="0.5161" y="5" relative="1" as="geometry">
            <mxPoint as="offset" />
          </mxGeometry>
        </mxCell>
        <mxCell id="9DJTG4eF34QYmgAZXBlj-18" style="edgeStyle=orthogonalEdgeStyle;rounded=0;orthogonalLoop=1;jettySize=auto;html=1;entryX=0;entryY=0.5;entryDx=0;entryDy=0;curved=1;dashed=1;" edge="1" parent="1" source="9DJTG4eF34QYmgAZXBlj-5" target="9DJTG4eF34QYmgAZXBlj-11">
          <mxGeometry relative="1" as="geometry">
            <Array as="points">
              <mxPoint x="920" y="460" />
              <mxPoint x="920" y="680" />
            </Array>
          </mxGeometry>
        </mxCell>
        <mxCell id="9DJTG4eF34QYmgAZXBlj-21" value="&amp;lt;&amp;lt;include&amp;gt;&amp;gt;" style="edgeLabel;html=1;align=center;verticalAlign=middle;resizable=0;points=[];" vertex="1" connectable="0" parent="9DJTG4eF34QYmgAZXBlj-18">
          <mxGeometry x="0.2214" y="30" relative="1" as="geometry">
            <mxPoint as="offset" />
          </mxGeometry>
        </mxCell>
        <mxCell id="9DJTG4eF34QYmgAZXBlj-5" value="Запуск тепловизора" style="ellipse;whiteSpace=wrap;html=1;" vertex="1" parent="1">
          <mxGeometry x="690" y="420" width="120" height="80" as="geometry" />
        </mxCell>
        <mxCell id="9DJTG4eF34QYmgAZXBlj-7" value="Мониторинг тепловой карты" style="ellipse;whiteSpace=wrap;html=1;" vertex="1" parent="1">
          <mxGeometry x="690" y="560" width="120" height="80" as="geometry" />
        </mxCell>
        <mxCell id="9DJTG4eF34QYmgAZXBlj-10" value="Управление сервоприводами" style="ellipse;whiteSpace=wrap;html=1;" vertex="1" parent="1">
          <mxGeometry x="1245" y="340" width="120" height="80" as="geometry" />
        </mxCell>
        <mxCell id="9DJTG4eF34QYmgAZXBlj-26" style="edgeStyle=orthogonalEdgeStyle;rounded=0;orthogonalLoop=1;jettySize=auto;html=1;entryX=1;entryY=0.5;entryDx=0;entryDy=0;exitX=1;exitY=0.5;exitDx=0;exitDy=0;curved=1;" edge="1" parent="1" source="9DJTG4eF34QYmgAZXBlj-11" target="9DJTG4eF34QYmgAZXBlj-10">
          <mxGeometry relative="1" as="geometry" />
        </mxCell>
        <mxCell id="9DJTG4eF34QYmgAZXBlj-28" style="edgeStyle=orthogonalEdgeStyle;rounded=0;orthogonalLoop=1;jettySize=auto;html=1;entryX=0.5;entryY=1;entryDx=0;entryDy=0;exitX=0.5;exitY=1;exitDx=0;exitDy=0;curved=1;dashed=1;" edge="1" parent="1" source="9DJTG4eF34QYmgAZXBlj-11" target="9DJTG4eF34QYmgAZXBlj-7">
          <mxGeometry relative="1" as="geometry" />
        </mxCell>
        <mxCell id="9DJTG4eF34QYmgAZXBlj-29" value="&amp;lt;&amp;lt;include&amp;gt;&amp;gt;" style="edgeLabel;html=1;align=center;verticalAlign=middle;resizable=0;points=[];" vertex="1" connectable="0" parent="9DJTG4eF34QYmgAZXBlj-28">
          <mxGeometry x="0.0519" y="1" relative="1" as="geometry">
            <mxPoint as="offset" />
          </mxGeometry>
        </mxCell>
        <mxCell id="9DJTG4eF34QYmgAZXBlj-11" value="Отображение тепловой карты" style="ellipse;whiteSpace=wrap;html=1;" vertex="1" parent="1">
          <mxGeometry x="1245" y="640" width="120" height="80" as="geometry" />
        </mxCell>
        <mxCell id="9DJTG4eF34QYmgAZXBlj-23" style="edgeStyle=orthogonalEdgeStyle;rounded=0;orthogonalLoop=1;jettySize=auto;html=1;entryX=0;entryY=0.5;entryDx=0;entryDy=0;curved=1;exitX=0.5;exitY=0;exitDx=0;exitDy=0;" edge="1" parent="1" source="9DJTG4eF34QYmgAZXBlj-12" target="9DJTG4eF34QYmgAZXBlj-10">
          <mxGeometry relative="1" as="geometry" />
        </mxCell>
        <mxCell id="9DJTG4eF34QYmgAZXBlj-24" style="edgeStyle=orthogonalEdgeStyle;rounded=0;orthogonalLoop=1;jettySize=auto;html=1;entryX=0;entryY=0.5;entryDx=0;entryDy=0;curved=1;exitX=0.5;exitY=1;exitDx=0;exitDy=0;" edge="1" parent="1" source="9DJTG4eF34QYmgAZXBlj-12" target="9DJTG4eF34QYmgAZXBlj-11">
          <mxGeometry relative="1" as="geometry" />
        </mxCell>
        <mxCell id="9DJTG4eF34QYmgAZXBlj-12" value="Обработка данных сенсора" style="ellipse;whiteSpace=wrap;html=1;" vertex="1" parent="1">
          <mxGeometry x="1050" y="490" width="120" height="80" as="geometry" />
        </mxCell>
        <mxCell id="9DJTG4eF34QYmgAZXBlj-34" style="edgeStyle=orthogonalEdgeStyle;rounded=0;orthogonalLoop=1;jettySize=auto;html=1;entryX=0;entryY=0.5;entryDx=0;entryDy=0;" edge="1" parent="1" source="9DJTG4eF34QYmgAZXBlj-31" target="9DJTG4eF34QYmgAZXBlj-33">
          <mxGeometry relative="1" as="geometry" />
        </mxCell>
        <mxCell id="9DJTG4eF34QYmgAZXBlj-35" value="Данные получены" style="edgeLabel;html=1;align=center;verticalAlign=middle;resizable=0;points=[];" vertex="1" connectable="0" parent="9DJTG4eF34QYmgAZXBlj-34">
          <mxGeometry x="0.0082" y="1" relative="1" as="geometry">
            <mxPoint y="-19" as="offset" />
          </mxGeometry>
        </mxCell>
        <mxCell id="9DJTG4eF34QYmgAZXBlj-31" value="Ожидание данных" style="ellipse;whiteSpace=wrap;html=1;aspect=fixed;" vertex="1" parent="1">
          <mxGeometry x="1900" y="470" width="100" height="100" as="geometry" />
        </mxCell>
        <mxCell id="9DJTG4eF34QYmgAZXBlj-37" style="edgeStyle=orthogonalEdgeStyle;rounded=0;orthogonalLoop=1;jettySize=auto;html=1;" edge="1" parent="1" source="9DJTG4eF34QYmgAZXBlj-33" target="9DJTG4eF34QYmgAZXBlj-36">
          <mxGeometry relative="1" as="geometry" />
        </mxCell>
        <mxCell id="9DJTG4eF34QYmgAZXBlj-38" value="Найден горячий&amp;nbsp;&lt;div&gt;пиксель&lt;/div&gt;" style="edgeLabel;html=1;align=center;verticalAlign=middle;resizable=0;points=[];" vertex="1" connectable="0" parent="9DJTG4eF34QYmgAZXBlj-37">
          <mxGeometry x="-0.0533" y="1" relative="1" as="geometry">
            <mxPoint as="offset" />
          </mxGeometry>
        </mxCell>
        <mxCell id="9DJTG4eF34QYmgAZXBlj-40" style="rounded=0;orthogonalLoop=1;jettySize=auto;html=1;" edge="1" parent="1" source="9DJTG4eF34QYmgAZXBlj-33" target="9DJTG4eF34QYmgAZXBlj-39">
          <mxGeometry relative="1" as="geometry" />
        </mxCell>
        <mxCell id="9DJTG4eF34QYmgAZXBlj-42" value="Данные получены и&amp;nbsp;&lt;div&gt;обработаны&lt;/div&gt;" style="edgeLabel;html=1;align=center;verticalAlign=middle;resizable=0;points=[];" vertex="1" connectable="0" parent="9DJTG4eF34QYmgAZXBlj-40">
          <mxGeometry x="-0.0717" y="1" relative="1" as="geometry">
            <mxPoint as="offset" />
          </mxGeometry>
        </mxCell>
        <mxCell id="9DJTG4eF34QYmgAZXBlj-33" value="Обработка данных" style="ellipse;whiteSpace=wrap;html=1;aspect=fixed;" vertex="1" parent="1">
          <mxGeometry x="2150" y="470" width="100" height="100" as="geometry" />
        </mxCell>
        <mxCell id="9DJTG4eF34QYmgAZXBlj-36" value="Управление сервоприводами" style="ellipse;whiteSpace=wrap;html=1;aspect=fixed;" vertex="1" parent="1">
          <mxGeometry x="2150" y="720" width="100" height="100" as="geometry" />
        </mxCell>
        <mxCell id="9DJTG4eF34QYmgAZXBlj-43" style="edgeStyle=orthogonalEdgeStyle;rounded=0;orthogonalLoop=1;jettySize=auto;html=1;" edge="1" parent="1" source="9DJTG4eF34QYmgAZXBlj-39" target="9DJTG4eF34QYmgAZXBlj-31">
          <mxGeometry relative="1" as="geometry" />
        </mxCell>
        <mxCell id="9DJTG4eF34QYmgAZXBlj-44" value="Карта обновлена" style="edgeLabel;html=1;align=center;verticalAlign=middle;resizable=0;points=[];" vertex="1" connectable="0" parent="9DJTG4eF34QYmgAZXBlj-43">
          <mxGeometry x="0.0686" relative="1" as="geometry">
            <mxPoint as="offset" />
          </mxGeometry>
        </mxCell>
        <mxCell id="9DJTG4eF34QYmgAZXBlj-39" value="Отображение тепловизионной карты на дисплей" style="ellipse;whiteSpace=wrap;html=1;aspect=fixed;" vertex="1" parent="1">
          <mxGeometry x="1900" y="720" width="100" height="100" as="geometry" />
        </mxCell>
        <mxCell id="9DJTG4eF34QYmgAZXBlj-46" style="rounded=0;orthogonalLoop=1;jettySize=auto;html=1;" edge="1" parent="1" source="9DJTG4eF34QYmgAZXBlj-45" target="9DJTG4eF34QYmgAZXBlj-31">
          <mxGeometry relative="1" as="geometry" />
        </mxCell>
        <mxCell id="9DJTG4eF34QYmgAZXBlj-47" value="Инициализация успешна" style="edgeLabel;html=1;align=center;verticalAlign=middle;resizable=0;points=[];" vertex="1" connectable="0" parent="9DJTG4eF34QYmgAZXBlj-46">
          <mxGeometry x="-0.1072" y="2" relative="1" as="geometry">
            <mxPoint as="offset" />
          </mxGeometry>
        </mxCell>
        <mxCell id="9DJTG4eF34QYmgAZXBlj-45" value="Запуск устройства" style="ellipse;whiteSpace=wrap;html=1;aspect=fixed;" vertex="1" parent="1">
          <mxGeometry x="1760" y="330" width="100" height="100" as="geometry" />
        </mxCell>
      </root>
    </mxGraphModel>
  </diagram>
</mxfile>
